<mxfile host="app.diagrams.net" agent="Mozilla/5.0 (Windows NT 10.0; Win64; x64) AppleWebKit/537.36 (KHTML, like Gecko) Chrome/127.0.0.0 Safari/537.36" version="24.7.6">
  <diagram id="R2lEEEUBdFMjLlhIrx00" name="Page-1">
    <mxGraphModel dx="2240" dy="1012" grid="1" gridSize="10" guides="1" tooltips="1" connect="1" arrows="1" fold="1" page="1" pageScale="1" pageWidth="850" pageHeight="1100" math="0" shadow="0" extFonts="Permanent Marker^https://fonts.googleapis.com/css?family=Permanent+Marker">
      <root>
        <mxCell id="0" />
        <mxCell id="1" parent="0" />
        <mxCell id="ajAuqxcPqno8O2iD2ZDI-2" value="&lt;span style=&quot;font-size: 14px;&quot;&gt;Owner&lt;/span&gt;" style="rounded=0;whiteSpace=wrap;html=1;" vertex="1" parent="1">
          <mxGeometry x="210" y="220" width="130" height="40" as="geometry" />
        </mxCell>
        <mxCell id="ajAuqxcPqno8O2iD2ZDI-3" value="&lt;font style=&quot;font-size: 14px;&quot;&gt;Vehicle Owner&lt;/font&gt;" style="rounded=0;whiteSpace=wrap;html=1;" vertex="1" parent="1">
          <mxGeometry x="242.5" y="777.5" width="150" height="45" as="geometry" />
        </mxCell>
        <mxCell id="ajAuqxcPqno8O2iD2ZDI-17" value="Id" style="ellipse;whiteSpace=wrap;html=1;align=center;" vertex="1" parent="1">
          <mxGeometry x="120" y="140" width="70" height="30" as="geometry" />
        </mxCell>
        <mxCell id="ajAuqxcPqno8O2iD2ZDI-18" value="name" style="ellipse;whiteSpace=wrap;html=1;align=center;" vertex="1" parent="1">
          <mxGeometry x="230" y="117.5" width="70" height="35" as="geometry" />
        </mxCell>
        <mxCell id="ajAuqxcPqno8O2iD2ZDI-19" value="cnic" style="ellipse;whiteSpace=wrap;html=1;align=center;" vertex="1" parent="1">
          <mxGeometry x="330" y="127.5" width="70" height="40" as="geometry" />
        </mxCell>
        <mxCell id="ajAuqxcPqno8O2iD2ZDI-20" value="" style="shape=waypoint;sketch=0;size=6;pointerEvents=1;points=[];fillColor=none;resizable=0;rotatable=0;perimeter=centerPerimeter;snapToPoint=1;" vertex="1" parent="1">
          <mxGeometry x="445" y="132.5" width="20" height="20" as="geometry" />
        </mxCell>
        <mxCell id="ajAuqxcPqno8O2iD2ZDI-21" value="" style="shape=waypoint;sketch=0;size=6;pointerEvents=1;points=[];fillColor=none;resizable=0;rotatable=0;perimeter=centerPerimeter;snapToPoint=1;" vertex="1" parent="1">
          <mxGeometry x="425" y="132.5" width="20" height="20" as="geometry" />
        </mxCell>
        <mxCell id="ajAuqxcPqno8O2iD2ZDI-22" value="Id" style="ellipse;whiteSpace=wrap;html=1;align=center;" vertex="1" parent="1">
          <mxGeometry x="190" y="650" width="70" height="30" as="geometry" />
        </mxCell>
        <mxCell id="ajAuqxcPqno8O2iD2ZDI-23" value="vehicle id" style="ellipse;whiteSpace=wrap;html=1;align=center;" vertex="1" parent="1">
          <mxGeometry x="290" y="660" width="70" height="35" as="geometry" />
        </mxCell>
        <mxCell id="ajAuqxcPqno8O2iD2ZDI-24" value="owner id" style="ellipse;whiteSpace=wrap;html=1;align=center;" vertex="1" parent="1">
          <mxGeometry x="385" y="660" width="70" height="40" as="geometry" />
        </mxCell>
        <mxCell id="ajAuqxcPqno8O2iD2ZDI-104" value="" style="endArrow=none;html=1;rounded=0;entryX=1;entryY=1;entryDx=0;entryDy=0;exitX=0;exitY=0.5;exitDx=0;exitDy=0;" edge="1" parent="1" target="ajAuqxcPqno8O2iD2ZDI-13">
          <mxGeometry relative="1" as="geometry">
            <mxPoint x="-165" y="156.25" as="sourcePoint" />
            <mxPoint x="240" y="176.79000000000002" as="targetPoint" />
          </mxGeometry>
        </mxCell>
        <mxCell id="ajAuqxcPqno8O2iD2ZDI-105" value="" style="endArrow=none;html=1;rounded=0;entryX=0.5;entryY=1;entryDx=0;entryDy=0;exitX=0.324;exitY=0.039;exitDx=0;exitDy=0;exitPerimeter=0;" edge="1" parent="1" target="ajAuqxcPqno8O2iD2ZDI-14">
          <mxGeometry relative="1" as="geometry">
            <mxPoint x="-122.88000000000011" y="136.65750000000003" as="sourcePoint" />
            <mxPoint x="280" y="190" as="targetPoint" />
          </mxGeometry>
        </mxCell>
        <mxCell id="ajAuqxcPqno8O2iD2ZDI-106" value="" style="endArrow=none;html=1;rounded=0;exitX=0.885;exitY=0.042;exitDx=0;exitDy=0;exitPerimeter=0;" edge="1" parent="1" target="ajAuqxcPqno8O2iD2ZDI-51">
          <mxGeometry relative="1" as="geometry">
            <mxPoint x="-49.94999999999982" y="136.78500000000008" as="sourcePoint" />
            <mxPoint x="325" y="184.29000000000002" as="targetPoint" />
          </mxGeometry>
        </mxCell>
        <mxCell id="ajAuqxcPqno8O2iD2ZDI-107" value="" style="endArrow=none;html=1;rounded=0;entryX=0;entryY=0.5;entryDx=0;entryDy=0;exitX=0.5;exitY=1;exitDx=0;exitDy=0;" edge="1" parent="1" source="ajAuqxcPqno8O2iD2ZDI-17" target="ajAuqxcPqno8O2iD2ZDI-2">
          <mxGeometry relative="1" as="geometry">
            <mxPoint x="260" y="158.57" as="sourcePoint" />
            <mxPoint x="270" y="170" as="targetPoint" />
          </mxGeometry>
        </mxCell>
        <mxCell id="ajAuqxcPqno8O2iD2ZDI-108" value="" style="endArrow=none;html=1;rounded=0;entryX=0.5;entryY=0;entryDx=0;entryDy=0;" edge="1" parent="1" source="ajAuqxcPqno8O2iD2ZDI-18" target="ajAuqxcPqno8O2iD2ZDI-2">
          <mxGeometry relative="1" as="geometry">
            <mxPoint x="280" y="290" as="sourcePoint" />
            <mxPoint x="440" y="290" as="targetPoint" />
          </mxGeometry>
        </mxCell>
        <mxCell id="ajAuqxcPqno8O2iD2ZDI-109" value="" style="endArrow=none;html=1;rounded=0;exitX=0.5;exitY=1;exitDx=0;exitDy=0;" edge="1" parent="1" source="ajAuqxcPqno8O2iD2ZDI-22" target="ajAuqxcPqno8O2iD2ZDI-3">
          <mxGeometry relative="1" as="geometry">
            <mxPoint x="505" y="127.5" as="sourcePoint" />
            <mxPoint x="665" y="127.5" as="targetPoint" />
          </mxGeometry>
        </mxCell>
        <mxCell id="ajAuqxcPqno8O2iD2ZDI-110" value="" style="endArrow=none;html=1;rounded=0;entryX=0.5;entryY=1;entryDx=0;entryDy=0;exitX=0.75;exitY=0;exitDx=0;exitDy=0;" edge="1" parent="1" source="ajAuqxcPqno8O2iD2ZDI-2" target="ajAuqxcPqno8O2iD2ZDI-19">
          <mxGeometry relative="1" as="geometry">
            <mxPoint x="365" y="215" as="sourcePoint" />
            <mxPoint x="525" y="215" as="targetPoint" />
          </mxGeometry>
        </mxCell>
        <mxCell id="ajAuqxcPqno8O2iD2ZDI-111" value="" style="endArrow=none;html=1;rounded=0;entryX=0.5;entryY=1;entryDx=0;entryDy=0;exitX=0.429;exitY=0.01;exitDx=0;exitDy=0;exitPerimeter=0;" edge="1" parent="1" source="ajAuqxcPqno8O2iD2ZDI-3" target="ajAuqxcPqno8O2iD2ZDI-23">
          <mxGeometry relative="1" as="geometry">
            <mxPoint x="605" y="168.04000000000002" as="sourcePoint" />
            <mxPoint x="765" y="168.04000000000002" as="targetPoint" />
          </mxGeometry>
        </mxCell>
        <mxCell id="ajAuqxcPqno8O2iD2ZDI-112" value="" style="endArrow=none;html=1;rounded=0;entryX=0.5;entryY=1;entryDx=0;entryDy=0;exitX=0.638;exitY=0.013;exitDx=0;exitDy=0;exitPerimeter=0;" edge="1" parent="1" source="ajAuqxcPqno8O2iD2ZDI-3" target="ajAuqxcPqno8O2iD2ZDI-24">
          <mxGeometry relative="1" as="geometry">
            <mxPoint x="620" y="160" as="sourcePoint" />
            <mxPoint x="460" y="310" as="targetPoint" />
          </mxGeometry>
        </mxCell>
        <mxCell id="ajAuqxcPqno8O2iD2ZDI-135" value="&lt;font style=&quot;font-size: 14px;&quot;&gt;Alteration&lt;/font&gt;" style="rounded=0;whiteSpace=wrap;html=1;" vertex="1" parent="1">
          <mxGeometry x="370" y="465" width="130" height="42.5" as="geometry" />
        </mxCell>
        <mxCell id="ajAuqxcPqno8O2iD2ZDI-136" value="Id" style="ellipse;whiteSpace=wrap;html=1;align=center;" vertex="1" parent="1">
          <mxGeometry x="570" y="535" width="70" height="30" as="geometry" />
        </mxCell>
        <mxCell id="ajAuqxcPqno8O2iD2ZDI-137" value="vehicle id" style="ellipse;whiteSpace=wrap;html=1;align=center;" vertex="1" parent="1">
          <mxGeometry x="580" y="410" width="70" height="35" as="geometry" />
        </mxCell>
        <mxCell id="ajAuqxcPqno8O2iD2ZDI-138" value="alteration details" style="ellipse;whiteSpace=wrap;html=1;align=center;" vertex="1" parent="1">
          <mxGeometry x="562.5" y="472.5" width="70" height="35" as="geometry" />
        </mxCell>
        <mxCell id="ajAuqxcPqno8O2iD2ZDI-139" value="" style="shape=waypoint;sketch=0;size=6;pointerEvents=1;points=[];fillColor=none;resizable=0;rotatable=0;perimeter=centerPerimeter;snapToPoint=1;" vertex="1" parent="1">
          <mxGeometry x="587.5" y="580" width="20" height="20" as="geometry" />
        </mxCell>
        <mxCell id="ajAuqxcPqno8O2iD2ZDI-140" value="" style="shape=waypoint;sketch=0;size=6;pointerEvents=1;points=[];fillColor=none;resizable=0;rotatable=0;perimeter=centerPerimeter;snapToPoint=1;" vertex="1" parent="1">
          <mxGeometry x="587.5" y="600" width="20" height="20" as="geometry" />
        </mxCell>
      </root>
    </mxGraphModel>
  </diagram>
</mxfile>
